<?xml version="1.0"?>
<svg xmlns="http://www.w3.org/2000/svg" xmlns:xlink="http://www.w3.org/1999/xlink" xmlns:svgjs="http://svgjs.com/svgjs" version="1.1" width="512" height="512" x="0" y="0" viewBox="0 0 527.25 527.25" style="enable-background:new 0 0 512 512" xml:space="preserve" class=""><g transform="matrix(1,0,0,-1,0,532.2505187988281)">
<g xmlns="http://www.w3.org/2000/svg">
	<g>
		<path d="M16.616,345.189h494.019c17.723,0,21.928-10.159,9.4-22.692L286.318,88.78c-12.528-12.534-32.853-12.534-45.38,0    L7.215,322.497C-5.312,335.03-1.108,345.189,16.616,345.189z" fill="#0588fb" data-original="#000000" style="" class=""/>
		<path d="M495.157,377.276H32.093C14.37,377.276,0,391.646,0,409.364v6.42c0,17.724,14.37,32.087,32.093,32.087h463.064    c17.723,0,32.093-14.37,32.093-32.087v-6.42C527.25,391.646,512.88,377.276,495.157,377.276z" fill="#0588fb" data-original="#000000" style="" class=""/>
	</g>
</g>
<g xmlns="http://www.w3.org/2000/svg">
</g>
<g xmlns="http://www.w3.org/2000/svg">
</g>
<g xmlns="http://www.w3.org/2000/svg">
</g>
<g xmlns="http://www.w3.org/2000/svg">
</g>
<g xmlns="http://www.w3.org/2000/svg">
</g>
<g xmlns="http://www.w3.org/2000/svg">
</g>
<g xmlns="http://www.w3.org/2000/svg">
</g>
<g xmlns="http://www.w3.org/2000/svg">
</g>
<g xmlns="http://www.w3.org/2000/svg">
</g>
<g xmlns="http://www.w3.org/2000/svg">
</g>
<g xmlns="http://www.w3.org/2000/svg">
</g>
<g xmlns="http://www.w3.org/2000/svg">
</g>
<g xmlns="http://www.w3.org/2000/svg">
</g>
<g xmlns="http://www.w3.org/2000/svg">
</g>
<g xmlns="http://www.w3.org/2000/svg">
</g>
</g></svg>
